<?xml version="1.0" standalone="no"?>
<!DOCTYPE svg PUBLIC "-//W3C//DTD SVG 20010904//EN"
 "http://www.w3.org/TR/2001/REC-SVG-20010904/DTD/svg10.dtd">
<svg version="1.0" xmlns="http://www.w3.org/2000/svg"
 width="500.000000pt" height="500.000000pt" viewBox="0 0 500.000000 500.000000"
 preserveAspectRatio="xMidYMid meet">

<g transform="translate(0.000000,500.000000) scale(0.100000,-0.100000)"
fill="#000000" stroke="none">
<path d="M2354 3658 c-4 -13 -33 -79 -64 -148 -32 -69 -67 -147 -80 -175 -13
-27 -100 -219 -195 -425 -95 -206 -184 -401 -199 -432 -14 -32 -38 -84 -52
-115 -15 -32 -50 -110 -79 -173 -50 -109 -233 -510 -289 -632 -14 -31 -26 -59
-26 -62 0 -3 60 -6 134 -6 l133 0 118 258 c65 141 134 291 153 332 19 41 50
108 69 148 l34 72 211 -2 c175 -3 212 -6 220 -18 4 -8 41 -85 82 -170 126
-267 137 -291 217 -457 l78 -163 416 0 c229 0 414 3 412 8 -11 21 -128 271
-207 442 -32 69 -79 170 -105 225 -26 55 -58 125 -72 155 -14 30 -40 87 -58
125 -18 39 -48 104 -68 145 -19 41 -67 144 -106 229 -100 213 -134 285 -171
366 -18 39 -47 102 -65 140 -68 145 -108 232 -136 293 l-28 62 -135 0 c-131 0
-135 -1 -142 -22z m167 -330 c7 -18 36 -82 65 -143 28 -60 61 -130 72 -155 11
-25 38 -83 60 -130 22 -47 88 -188 147 -315 58 -126 122 -261 140 -300 87
-180 265 -570 265 -580 0 -8 -43 -12 -140 -14 l-140 -2 -96 198 c-53 109 -111
230 -129 268 -19 39 -67 141 -109 228 l-75 157 -133 2 c-73 1 -177 2 -230 1
-54 0 -98 0 -98 2 0 3 230 505 284 620 24 50 53 114 66 143 13 28 27 52 31 52
3 0 12 -15 20 -32z"/>
</g>
</svg>
